<svg xmlns="http://www.w3.org/2000/svg" xmlns:xlink="http://www.w3.org/1999/xlink" width="0" height="0" style="position:absolute">
    <symbol id="menu01"   viewBox="0 0 16 26">
        <path fill-rule="evenodd"  fill="rgb(255, 255, 255)"
              d="M14.765,26.000 L1.235,26.000 C0.550,26.000 -0.000,25.454 -0.000,24.786 L-0.000,11.484 C-0.000,10.810 0.555,10.270 1.235,10.270 L6.482,10.270 L6.482,15.068 L9.653,15.068 L9.653,10.270 L14.765,10.270 C15.450,10.270 16.000,10.816 16.000,11.484 L16.000,24.786 C16.000,25.459 15.445,26.000 14.765,26.000 ZM8.332,7.677 C8.164,7.884 7.846,7.884 7.679,7.677 L5.010,4.337 C4.794,4.072 4.988,3.679 5.333,3.679 L6.385,3.679 L6.385,0.265 C6.385,0.117 6.504,-0.000 6.655,-0.000 L9.351,-0.000 C9.502,-0.000 9.620,0.117 9.620,0.265 L9.620,3.685 L10.677,3.685 C11.023,3.685 11.217,4.077 11.001,4.342 L8.332,7.677 Z"/>
    </symbol>
    <symbol id="menu02"  viewBox="0 0 26 29">
        <path fill-rule="evenodd"  fill="rgb(255, 255, 255)"
              d="M24.250,14.503 L24.250,5.486 C24.250,4.151 23.165,3.060 21.825,3.060 L16.873,3.060 L16.873,4.122 C16.873,4.323 16.653,4.448 16.481,4.347 L13.136,2.413 C12.964,2.312 12.964,2.063 13.136,1.962 L16.481,0.029 C16.653,-0.072 16.873,0.052 16.873,0.254 L16.873,1.316 L21.825,1.316 C24.126,1.316 26.000,3.184 26.000,5.492 L26.000,14.503 L24.250,14.503 ZM14.672,6.406 L19.844,6.406 C20.532,6.406 21.095,6.969 21.089,7.657 L21.089,21.343 C21.089,22.031 20.532,22.589 19.844,22.589 L6.156,22.589 C5.468,22.589 4.911,22.031 4.911,21.343 L4.911,7.651 C4.911,6.963 5.468,6.406 6.156,6.406 L11.464,6.406 L11.464,11.347 L14.672,11.347 L14.672,6.406 ZM9.133,24.884 C9.133,24.683 9.353,24.558 9.525,24.659 L12.870,26.593 C13.041,26.694 13.041,26.943 12.864,27.038 L9.519,28.972 C9.347,29.072 9.127,28.948 9.127,28.746 L9.127,27.690 L4.175,27.690 C1.868,27.690 -0.000,25.822 -0.000,23.514 L-0.000,14.503 L1.755,14.503 L1.755,23.514 C1.755,24.855 2.841,25.940 4.181,25.940 L9.133,25.940 L9.133,24.884 Z"/>
    </symbol>
    <symbol id="menu03"  viewBox="0 0 16 18">
        <path fill-rule="evenodd"  fill="rgb(255, 255, 255)"
              d="M14.765,16.000 L13.633,16.000 C13.856,15.372 14.000,14.705 14.000,14.000 C14.000,10.686 11.314,8.000 8.000,8.000 C4.686,8.000 2.000,10.686 2.000,14.000 C2.000,14.705 2.144,15.372 2.367,16.000 L1.235,16.000 C0.550,16.000 -0.000,15.454 -0.000,14.786 L-0.000,1.484 C-0.000,0.810 0.555,0.270 1.235,0.270 L6.482,0.270 L6.482,5.068 L9.653,5.068 L9.653,0.270 L14.765,0.270 C15.450,0.270 16.000,0.816 16.000,1.484 L16.000,14.786 C16.000,15.459 15.445,16.000 14.765,16.000 ZM8.000,10.000 C10.208,10.000 12.000,11.792 12.000,14.000 C12.000,16.208 10.208,18.000 8.000,18.000 C5.792,18.000 4.000,16.213 4.000,14.000 C4.000,11.792 5.787,10.000 8.000,10.000 ZM6.720,14.873 L7.483,15.641 L8.251,14.878 L10.016,13.122 L9.253,12.354 L7.488,14.110 L6.752,13.369 L5.984,14.133 L6.720,14.873 Z"/>
    </symbol>
    <symbol  id="menu04" viewBox="0 0 16 20">
        <path fill-rule="evenodd"  fill="rgb(255, 255, 255)"
              d="M14.400,0.000 L4.800,0.000 C3.920,0.000 3.200,0.720 3.200,1.600 L3.200,17.600 C3.200,18.080 2.800,18.400 2.400,18.400 C2.000,18.400 1.600,18.080 1.600,17.600 L1.600,4.800 C1.600,4.400 1.200,4.000 0.800,4.000 C0.400,4.000 -0.000,4.400 -0.000,4.800 L-0.000,18.400 C-0.000,19.280 0.720,20.000 1.600,20.000 L14.400,20.000 C15.280,20.000 16.000,19.280 16.000,18.400 L16.000,1.600 C16.000,0.720 15.280,0.000 14.400,0.000 ZM10.400,8.000 L5.600,8.000 C5.200,8.000 4.800,7.680 4.800,7.200 C4.800,6.800 5.200,6.400 5.600,6.400 L10.400,6.400 C10.800,6.400 11.200,6.800 11.200,7.200 C11.200,7.680 10.800,8.000 10.400,8.000 ZM13.600,4.800 L5.600,4.800 C5.200,4.800 4.800,4.480 4.800,4.000 C4.800,3.600 5.200,3.200 5.600,3.200 L13.600,3.200 C14.000,3.200 14.400,3.600 14.400,4.000 C14.400,4.480 14.000,4.800 13.600,4.800 Z"/>
    </symbol>
    <symbol  id="menu05" viewBox="0 0 18 18">
        <path fill-rule="evenodd"  fill="rgb(255, 255, 255)"
              d="M17.011,17.011 C16.351,17.671 15.556,18.001 14.626,18.001 L3.374,18.001 C2.445,18.001 1.649,17.671 0.989,17.011 C0.329,16.351 -0.001,15.555 -0.001,14.626 L-0.001,3.374 C-0.001,2.444 0.329,1.649 0.989,0.989 C1.649,0.329 2.445,-0.001 3.374,-0.001 L14.626,-0.001 C15.556,-0.001 16.351,0.329 17.011,0.989 C17.671,1.649 18.001,2.444 18.001,3.374 L18.001,14.626 C18.001,15.555 17.671,16.351 17.011,17.011 ZM2.999,11.625 L2.999,15.001 L6.375,15.001 L12.750,8.625 L9.375,5.249 L2.999,11.625 ZM14.579,5.203 L12.797,3.421 C12.579,3.202 12.313,3.093 12.001,3.093 C11.688,3.093 11.422,3.202 11.203,3.421 L10.125,4.499 L13.501,7.875 L14.579,6.796 C14.798,6.578 14.907,6.312 14.907,6.000 C14.907,5.687 14.798,5.421 14.579,5.203 ZM9.551,7.265 L6.140,10.676 C6.008,10.809 5.890,10.820 5.789,10.711 C5.679,10.609 5.691,10.492 5.824,10.360 L9.234,6.949 C9.367,6.816 9.484,6.804 9.586,6.914 C9.695,7.015 9.684,7.132 9.551,7.265 ZM5.906,13.876 L5.250,13.876 L5.250,12.750 L4.124,12.750 L4.124,12.094 L4.734,11.484 L6.515,13.266 L5.906,13.876 Z"/>
    </symbol>
    <symbol viewBox="0 0 340 60" id="logo">
        <g id="Page-1" stroke="none" stroke-width="1" fill="none" fill-rule="evenodd">
            <g id="hub">
                <rect id="Rectangle" fill="#FFFFFF" x="206" y="0" width="134" height="60"></rect>
                <path d="M17.472,5.976 L25.608,26.856 L33.816,5.976 L50.592,5.976 L31.872,54 L19.416,54 L0.696,5.976 L17.472,5.976 Z M53.672,5.976 L81.968,5.976 L81.968,18.576 L69.008,18.576 L69.008,23.904 L81.752,23.904 L81.752,35.856 L69.008,35.856 L69.008,41.4 L82.472,41.4 L82.472,54 L53.672,54 L53.672,5.976 Z M85.792,5.976 L101.776,5.976 L101.776,41.4 L115.024,41.4 L115.024,54 L85.792,54 L85.792,5.976 Z M115.304,30.024 C115.304,26.5679827 115.963993,23.3040154 117.284,20.232 C118.604007,17.1599846 120.403989,14.4840114 122.684,12.204 C124.964011,9.9239886 127.639985,8.1240066 130.712,6.804 C133.784015,5.4839934 137.047983,4.824 140.504,4.824 C143.960017,4.824 147.223985,5.4839934 150.296,6.804 C153.368015,8.1240066 156.043989,9.9239886 158.324,12.204 C160.604011,14.4840114 162.403993,17.1599846 163.724,20.232 C165.044007,23.3040154 165.704,26.5679827 165.704,30.024 C165.704,33.4800173 165.044007,36.7439846 163.724,39.816 C162.403993,42.8880154 160.604011,45.5639886 158.324,47.844 C156.043989,50.1240114 153.368015,51.9239934 150.296,53.244 C147.223985,54.5640066 143.960017,55.224 140.504,55.224 C137.047983,55.224 133.784015,54.5640066 130.712,53.244 C127.639985,51.9239934 124.964011,50.1240114 122.684,47.844 C120.403989,45.5639886 118.604007,42.8880154 117.284,39.816 C115.963993,36.7439846 115.304,33.4800173 115.304,30.024 L115.304,30.024 Z M130.424,30.024 C130.424,31.416007 130.687997,32.7239939 131.216,33.948 C131.744003,35.1720061 132.463995,36.2399954 133.376,37.152 C134.288005,38.0640046 135.355994,38.7839974 136.58,39.312 C137.804006,39.8400026 139.111993,40.104 140.504,40.104 C141.896007,40.104 143.203994,39.8400026 144.428,39.312 C145.652006,38.7839974 146.719995,38.0640046 147.632,37.152 C148.544005,36.2399954 149.263997,35.1720061 149.792,33.948 C150.320003,32.7239939 150.584,31.416007 150.584,30.024 C150.584,28.631993 150.320003,27.3240061 149.792,26.1 C149.263997,24.8759939 148.544005,23.8080046 147.632,22.896 C146.719995,21.9839954 145.652006,21.2640026 144.428,20.736 C143.203994,20.2079974 141.896007,19.944 140.504,19.944 C139.111993,19.944 137.804006,20.2079974 136.58,20.736 C135.355994,21.2640026 134.288005,21.9839954 133.376,22.896 C132.463995,23.8080046 131.744003,24.8759939 131.216,26.1 C130.687997,27.3240061 130.424,28.631993 130.424,30.024 L130.424,30.024 Z M172.984,29.16 L160.24,5.976 L177.016,5.976 L181.336,13.824 L185.656,5.976 L202.504,5.976 L189.76,29.16 L203.44,54 L186.664,54 L181.336,44.424 L176.08,54 L159.304,54 L172.984,29.16 Z" id="VELOX" fill="#FFFFFF"></path>
                <path d="M210.352,5.976 L225.688,5.976 L225.688,22.32 L234.256,22.32 L234.256,5.976 L249.664,5.976 L249.664,54 L234.256,54 L234.256,36.216 L225.688,36.216 L225.688,54 L210.352,54 L210.352,5.976 Z M274.36,55.224 C271.335985,55.224 268.600012,54.8400038 266.152,54.072 C263.703988,53.3039962 261.616009,52.1520077 259.888,50.616 C258.159991,49.0799923 256.828005,47.1360118 255.892,44.784 C254.955995,42.4319882 254.488,39.6720158 254.488,36.504 L254.488,5.976 L269.824,5.976 L269.824,35.856 C269.824,37.5360084 270.171997,38.8199956 270.868,39.708 C271.564003,40.5960044 272.727992,41.04 274.36,41.04 C275.992008,41.04 277.155997,40.5960044 277.852,39.708 C278.548003,38.8199956 278.896,37.5360084 278.896,35.856 L278.896,5.976 L294.304,5.976 L294.304,36.504 C294.304,39.6720158 293.836005,42.4319882 292.9,44.784 C291.963995,47.1360118 290.620009,49.0799923 288.868,50.616 C287.115991,52.1520077 285.016012,53.3039962 282.568,54.072 C280.119988,54.8400038 277.384015,55.224 274.36,55.224 L274.36,55.224 Z M299.128,5.976 L317.92,5.976 C320.320012,5.976 322.51599,6.25199724 324.508,6.804 C326.50001,7.35600276 328.203993,8.1719946 329.62,9.252 C331.036007,10.3320054 332.139996,11.675992 332.932,13.284 C333.724004,14.892008 334.12,16.7759892 334.12,18.936 C334.12,20.4720077 333.928002,21.7799946 333.544,22.86 C333.159998,23.9400054 332.752002,24.8399964 332.32,25.56 C331.791997,26.4240043 331.192003,27.1439971 330.52,27.72 C331.576005,28.3920034 332.535996,29.2559947 333.4,30.312 C334.120004,31.2240046 334.779997,32.375993 335.38,33.768 C335.980003,35.160007 336.28,36.8639899 336.28,38.88 C336.28,41.1840115 335.872004,43.2719906 335.056,45.144 C334.239996,47.0160094 333.076008,48.6119934 331.564,49.932 C330.051992,51.2520066 328.204011,52.2599965 326.02,52.956 C323.835989,53.6520035 321.400013,54 318.712,54 L299.128,54 L299.128,5.976 Z M315.688,42.696 C319.336018,42.696 321.16,41.3040139 321.16,38.52 C321.16,35.7359861 319.336018,34.344 315.688,34.344 L313.96,34.344 L313.96,42.696 L315.688,42.696 Z M319.288,20.592 C319.288,18.383989 318.088012,17.28 315.688,17.28 L313.96,17.28 L313.96,23.904 L315.688,23.904 C318.088012,23.904 319.288,22.800011 319.288,20.592 L319.288,20.592 Z" fill="#4673a4"></path>
            </g>
        </g>
    </symbol>
    <symbol id="icon-incar" viewBox="0 0 15 19">
        <path fill-rule="evenodd"  fill="rgb(70, 115, 164)"
              d="M14.786,17.345 L13.053,17.345 C12.929,16.458 12.197,15.774 11.314,15.774 C10.430,15.774 9.698,16.458 9.574,17.345 L6.085,17.345 C6.022,16.898 5.806,16.503 5.493,16.221 L8.801,16.221 L8.801,9.832 C8.801,9.586 8.993,9.386 9.229,9.386 L11.250,9.386 C11.819,9.386 12.351,9.681 12.669,10.173 L13.972,12.186 C14.163,12.481 14.265,12.829 14.265,13.186 L14.265,16.221 L14.786,16.221 C14.904,16.221 15.000,16.321 15.000,16.444 L15.000,17.122 C15.000,17.245 14.904,17.345 14.786,17.345 ZM12.829,12.238 L11.787,10.693 C11.747,10.634 11.682,10.598 11.612,10.598 L9.987,10.598 C9.869,10.598 9.773,10.698 9.773,10.822 L9.773,12.366 C9.773,12.489 9.869,12.589 9.987,12.589 L12.654,12.589 C12.827,12.589 12.928,12.386 12.829,12.238 ZM6.770,6.201 C6.634,6.368 6.375,6.368 6.239,6.201 L4.070,3.503 C3.895,3.289 4.053,2.972 4.333,2.972 L5.188,2.972 L5.188,0.214 C5.188,0.094 5.284,0.000 5.407,0.000 L7.598,0.000 C7.720,0.000 7.817,0.094 7.817,0.214 L7.817,2.976 L8.675,2.976 C8.956,2.976 9.114,3.293 8.938,3.507 L6.770,6.201 ZM8.189,8.670 L8.189,15.329 C8.189,15.452 8.093,15.552 7.975,15.552 L0.740,15.552 C0.622,15.552 0.526,15.452 0.526,15.329 L0.526,8.670 C0.526,8.300 0.814,8.000 1.168,8.000 L7.547,8.000 C7.902,8.000 8.189,8.300 8.189,8.670 ZM2.606,17.345 L0.214,17.345 C0.096,17.345 0.000,17.245 0.000,17.122 L0.000,16.444 C0.000,16.321 0.096,16.221 0.214,16.221 L3.198,16.221 C2.885,16.503 2.669,16.898 2.606,17.345 ZM4.346,16.221 C5.081,16.221 5.677,16.843 5.677,17.610 C5.677,18.378 5.081,19.000 4.346,19.000 C3.610,19.000 3.014,18.378 3.014,17.610 C3.014,16.843 3.610,16.221 4.346,16.221 ZM11.314,16.221 C12.049,16.221 12.646,16.843 12.646,17.610 C12.646,18.378 12.049,19.000 11.314,19.000 C10.578,19.000 9.982,18.378 9.982,17.610 C9.982,16.843 10.578,16.221 11.314,16.221 Z"/>
    </symbol>
    <symbol id="icon-inbox"  viewBox="0 0 13 21">
        <path fill-rule="evenodd"  fill="rgb(70, 115, 164)"
              d="M11.997,21.000 L1.003,21.000 C0.447,21.000 0.000,20.559 0.000,20.019 L0.000,9.275 C0.000,8.731 0.451,8.295 1.003,8.295 L5.267,8.295 L5.267,12.170 L7.843,12.170 L7.843,8.295 L11.997,8.295 C12.553,8.295 13.000,8.736 13.000,9.275 L13.000,20.019 C13.000,20.563 12.549,21.000 11.997,21.000 ZM6.770,6.201 C6.634,6.368 6.375,6.368 6.239,6.201 L4.070,3.503 C3.895,3.289 4.053,2.972 4.333,2.972 L5.188,2.972 L5.188,0.214 C5.188,0.094 5.284,-0.000 5.407,-0.000 L7.598,-0.000 C7.720,-0.000 7.817,0.094 7.817,0.214 L7.817,2.976 L8.675,2.976 C8.956,2.976 9.114,3.293 8.938,3.507 L6.770,6.201 Z"/>
    </symbol>
    <symbol id="icon-crybox" viewBox="0 0 14 13">
        <path fill-rule="evenodd"  fill="rgb(70, 115, 164)"
              d="M12.919,13.000 L1.081,13.000 C0.481,13.000 -0.000,12.549 -0.000,11.997 L-0.000,1.008 C-0.000,0.452 0.486,0.005 1.081,0.005 L5.672,0.005 L5.672,3.969 L8.446,3.969 L8.446,0.005 L12.919,0.005 C13.519,0.005 14.000,0.456 14.000,1.008 L14.000,11.997 C14.000,12.553 13.514,13.000 12.919,13.000 ZM3.500,5.087 C2.856,5.087 2.333,5.593 2.333,6.217 C2.333,6.842 2.856,7.348 3.500,7.348 C4.144,7.348 4.667,6.842 4.667,6.217 C4.667,5.593 4.144,5.087 3.500,5.087 ZM7.000,8.478 C4.886,8.507 4.667,10.739 4.667,10.739 C4.667,10.739 5.473,9.621 7.000,9.609 C8.527,9.596 9.333,10.739 9.333,10.739 C9.333,10.739 9.114,8.449 7.000,8.478 ZM10.500,5.087 C9.856,5.087 9.333,5.593 9.333,6.217 C9.333,6.842 9.856,7.348 10.500,7.348 C11.144,7.348 11.667,6.842 11.667,6.217 C11.667,5.593 11.144,5.087 10.500,5.087 Z"/>
    </symbol>
    <symbol id="icon-checkbox" viewBox="0 0 14 20" >
        <path fill-rule="evenodd"  fill="rgb(70, 115, 164)"
              d="M12.919,20.000 L1.081,20.000 C0.481,20.000 -0.000,19.549 -0.000,18.997 L-0.000,8.008 C-0.000,7.452 0.486,7.005 1.081,7.005 L5.672,7.005 L5.672,10.969 L8.446,10.969 L8.446,7.005 L12.919,7.005 C13.519,7.005 14.000,7.456 14.000,8.008 L14.000,18.997 C14.000,19.553 13.514,20.000 12.919,20.000 ZM3.500,12.087 C2.856,12.087 2.333,12.593 2.333,13.217 C2.333,13.842 2.856,14.348 3.500,14.348 C4.144,14.348 4.667,13.842 4.667,13.217 C4.667,12.593 4.144,12.087 3.500,12.087 ZM7.000,16.501 C5.046,16.485 4.013,15.014 4.013,15.014 C4.013,15.014 4.294,17.949 7.000,17.988 C9.706,18.026 9.987,15.014 9.987,15.014 C9.987,15.014 8.954,16.517 7.000,16.501 ZM10.500,12.087 C9.856,12.087 9.333,12.593 9.333,13.217 C9.333,13.842 9.856,14.348 10.500,14.348 C11.144,14.348 11.667,13.842 11.667,13.217 C11.667,12.593 11.144,12.087 10.500,12.087 ZM3.000,2.000 L4.750,2.000 L6.625,3.000 L9.250,0.000 L11.000,0.000 L6.250,5.000 L3.000,2.000 Z"/>
    </symbol>
    <symbol viewBox="0 0 13 23" id="icon-delbox">
        <path fill-rule="evenodd"  fill="rgb(70, 115, 164)"
              d="M11.997,20.754 L11.076,20.754 C11.258,20.244 11.375,19.704 11.375,19.132 C11.375,16.443 9.192,14.263 6.500,14.263 C3.808,14.263 1.625,16.443 1.625,19.132 C1.625,19.704 1.742,20.244 1.923,20.754 L1.003,20.754 C0.447,20.754 -0.000,20.311 -0.000,19.769 L-0.000,8.976 C-0.000,8.429 0.451,7.991 1.003,7.991 L5.267,7.991 L5.267,11.884 L7.843,11.884 L7.843,7.991 L11.997,7.991 C12.553,7.991 13.000,8.434 13.000,8.976 L13.000,19.769 C13.000,20.316 12.549,20.754 11.997,20.754 ZM8.827,5.830 C8.714,5.943 8.565,6.000 8.416,6.000 C8.268,6.000 8.119,5.944 8.005,5.830 L6.479,4.302 L4.952,5.830 C4.839,5.943 4.690,6.000 4.541,6.000 C4.393,6.000 4.244,5.944 4.131,5.830 C3.904,5.603 3.904,5.235 4.131,5.007 L5.657,3.480 L4.130,1.952 C3.903,1.725 3.903,1.357 4.130,1.130 C4.358,0.903 4.725,0.903 4.952,1.130 L6.479,2.657 L8.005,1.130 C8.232,0.903 8.600,0.903 8.827,1.130 C9.054,1.357 9.054,1.725 8.827,1.952 L7.301,3.480 L8.827,5.007 C9.054,5.235 9.054,5.603 8.827,5.830 ZM6.500,15.886 C8.294,15.886 9.750,17.340 9.750,19.132 C9.750,20.923 8.294,22.377 6.500,22.377 C4.706,22.377 3.250,20.927 3.250,19.132 C3.250,17.340 4.702,15.886 6.500,15.886 ZM5.460,19.840 L6.080,20.463 L6.704,19.844 L8.138,18.419 L7.518,17.796 L6.084,19.221 L5.486,18.620 L4.862,19.239 L5.460,19.840 Z"/>
    </symbol>
    <symbol id="icon-settings" viewBox="0 0 19 19">
        <path fill-rule="evenodd"  fill="rgb(70, 115, 164)"
              d="M18.622,10.545 L16.920,10.925 C16.731,11.970 16.353,12.825 15.786,13.680 L16.637,15.200 C16.731,15.390 16.731,15.580 16.542,15.770 L15.692,16.625 C15.597,16.815 15.313,16.815 15.124,16.720 L13.612,15.770 C12.856,16.340 11.910,16.720 10.871,16.910 L10.492,18.620 C10.398,18.810 10.209,19.000 10.020,19.000 L8.886,19.000 C8.697,19.000 8.507,18.810 8.413,18.715 L8.035,17.005 C6.995,16.815 6.144,16.435 5.294,15.865 L3.781,16.720 C3.592,16.815 3.403,16.815 3.214,16.625 L2.363,15.770 C2.174,15.580 2.174,15.390 2.269,15.200 L3.214,13.775 C2.647,13.015 2.269,12.065 2.080,11.020 L0.378,10.545 C0.189,10.450 0.000,10.260 0.000,10.070 L0.000,8.930 C0.000,8.740 0.189,8.550 0.378,8.455 L1.985,8.075 C2.174,7.125 2.552,6.175 3.119,5.320 L2.269,3.800 C2.174,3.610 2.174,3.325 2.363,3.230 L3.214,2.375 C3.308,2.185 3.592,2.185 3.781,2.280 L5.199,3.230 C6.050,2.660 6.995,2.280 8.035,2.090 L8.413,0.380 C8.507,0.190 8.697,-0.000 8.886,-0.000 L10.020,-0.000 C10.209,-0.000 10.398,0.190 10.492,0.285 L10.871,1.995 C11.910,2.185 12.856,2.565 13.612,3.135 L15.124,2.280 C15.313,2.185 15.502,2.185 15.692,2.375 L16.542,3.230 C16.731,3.420 16.731,3.610 16.637,3.800 L15.692,5.320 C16.259,6.080 16.637,7.030 16.826,8.075 L18.527,8.455 C18.716,8.550 18.905,8.740 19.000,8.930 L19.000,10.070 C19.000,10.260 18.811,10.545 18.622,10.545 ZM9.453,4.750 C6.900,4.750 4.726,6.840 4.726,9.500 C4.726,11.115 5.483,12.540 6.711,13.395 C7.090,12.255 8.224,11.400 9.453,11.400 C10.776,11.400 11.816,12.255 12.194,13.490 C15.786,11.400 14.368,4.750 9.453,4.750 ZM9.453,10.450 C8.409,10.450 7.562,9.599 7.562,8.550 C7.562,7.501 8.409,6.650 9.453,6.650 C10.497,6.650 11.343,7.501 11.343,8.550 C11.343,9.599 10.497,10.450 9.453,10.450 Z"/>
    </symbol>
</svg>


